<?xml version="1.0" encoding="utf-8"?>
<!-- Generator: Adobe Illustrator 21.1.0, SVG Export Plug-In . SVG Version: 6.00 Build 0)  -->
<svg version="1.1" id="Layer_1" xmlns="http://www.w3.org/2000/svg" xmlns:xlink="http://www.w3.org/1999/xlink" x="0px" y="0px"
	 viewBox="0 0 800 800" style="enable-background:new 0 0 800 800;" xml:space="preserve">
<style type="text/css">
	.st0{fill:#EAB81C;}
	.st1{fill:none;stroke:#000000;stroke-width:20;stroke-linejoin:round;stroke-miterlimit:10;}
</style>
<g>
	<path d="M281.4,307H23.3c0,0-9.1-7.5-11.2-17.1s38.5-87.6,38.5-87.6L151,230.1l76.9-75.9L201.2,49.5L292.1,11l56.6,94h104.7
		l53.4-94l91.9,38.5l-26.7,103.7l76.9,76.9l101.5-29.9L789,292l-93,55.6v107.9l93,53.4l-38.5,89.8l-102.6-25.6L571,649l28.9,100.5
		L510.1,789l-56.6-93l-107.9,1.1L293.1,789l-93-38.5l28.9-99.4L151,571L50.6,599.8l-38.5-91.9c0,0,5.3-7.5,16-8.5s255.4,0,255.4,0
		l29.9,51.3h174.2l56.6-99.4H370.1l-27.8-50.2l29.9-51.3h173.1l-58.8-99.4H314.5L281.4,307z"/>
	<path class="st0" d="M173.9,294.9c19.5-41.3,48.1-74.9,85.7-100.8c24.6-17,51.5-29,80.4-36.3c30.6-7.7,61.8-9.2,93.1-5.3
		c38.4,4.8,73.7,18,106.1,39.5c19.7,13.1,37.3,28.5,52.7,46.4c16.8,19.6,30.2,41.4,40.2,65.2c6.8,16,11.8,32.6,15.2,49.5
		c3.5,17.1,4.2,34.5,4.2,52c0.1,27.1-4.8,53.4-13.6,78.8c-9.5,27.5-23.5,52.7-42.2,75.1c-2.5,2.9-26.5,27.8-31.2,31.5
		c-102.5,95.4-307.1,87.1-390.4-83.2c35.1-0.1,70.1-0.1,105.2-0.3c2.2,0,3,1,3.9,2.7c8.2,14.2,16.7,28.2,24.7,42.5
		c2.2,4,5,5.5,9.4,5.5c55.7,0,111.5-0.1,167.2,0c4.7,0,7.7-1.6,10.2-6c18.3-32.1,36.9-64.1,55.5-96.1c3.5-6,1.5-9.9-5.5-10.4
		c-2.3-0.2-4.6,0-6.9,0c-52.2,0-104.3-0.1-156.5,0.1c-4.2,0-6.5-1.6-8.4-4.9c-6.9-12.2-13.9-24.5-21.1-36.6
		c-1.1-1.9-1.3-3.2-0.1-5.2c7.2-12.3,14.3-24.7,21.3-37.1c1.9-3.4,4.4-4.7,8.5-4.7c52.9,0.2,105.8,0.1,158.6,0.1
		c2.1,0,4.3,0,6.4-0.3c4.9-0.8,6.8-4.7,4.3-9c-8.5-14.8-17-29.6-25.6-44.4c-10.3-17.8-20.8-35.6-31-53.5c-2-3.5-4.4-5.3-8.4-5.3
		c-56.1,0-112.2,0-168.3,0c-4.7,0-7.7,1.8-10.1,6.2c-7.9,14.1-16.3,28-24.4,42c-1,1.8-1.9,2.6-4,2.6C244,295,208.9,295,173.9,294.9z
		"/>
	<path class="st1" d="M281.4,307H23.3c0,0-9.1-7.5-11.2-17.1s38.5-87.6,38.5-87.6L151,230.1l76.9-75.9L201.2,49.5L292.1,11l56.6,94
		h104.7l53.4-94l91.9,38.5l-26.7,103.7l76.9,76.9l101.5-29.9L789,292l-93,55.6v107.9l93,53.4l-38.5,89.8l-102.6-25.6L571,649
		l28.9,100.5L510.1,789l-56.6-93l-107.9,1.1L293.1,789l-93-38.5l28.9-99.4L151,571L50.6,599.8l-38.5-91.9c0,0,5.3-7.5,16-8.5
		s255.4,0,255.4,0l29.9,51.3h174.2l56.6-99.4H370.1l-27.8-50.2l29.9-51.3h173.1l-58.8-99.4H314.5L281.4,307z"/>
</g>
</svg>
